<svg width="89" height="66" viewBox="0 0 89 66" fill="none" xmlns="http://www.w3.org/2000/svg">
<path d="M57.1653 44L43.7205 57.4156L30.2756 44L26.1455 48.1301L43.7205 65.7051L61.2954 48.1301L57.1653 44Z" fill="white"/>
<path d="M3.834 9.428L7.11 17.69L10.404 9.428H14.238L8.514 23H5.706L0 9.428H3.834ZM23.3823 12.416H19.1883V14.684H23.1483V17.672H19.1883V20.012H23.3823V23H15.6603V9.428H23.3823V12.416ZM29.4539 15.494H30.1199C30.8159 15.494 31.3499 15.35 31.7219 15.062C32.0939 14.774 32.2799 14.36 32.2799 13.82C32.2799 13.28 32.0939 12.866 31.7219 12.578C31.3499 12.29 30.8159 12.146 30.1199 12.146H29.4539V15.494ZM37.2119 23H32.8199L29.4539 17.78V23H25.9259V9.428H31.4159C32.1719 9.428 32.8319 9.542 33.3959 9.77C33.9599 9.986 34.4219 10.286 34.7819 10.67C35.1539 11.054 35.4299 11.498 35.6099 12.002C35.8019 12.506 35.8979 13.046 35.8979 13.622C35.8979 14.654 35.6459 15.494 35.1419 16.142C34.6499 16.778 33.9179 17.21 32.9459 17.438L37.2119 23ZM44.1928 23L46.4968 9.428H49.9888L52.7068 16.664L55.4068 9.428H58.8988L61.2028 23H57.6928L56.5228 15.188L53.3188 23H51.9148L48.8728 15.188L47.7028 23H44.1928ZM70.8176 17.96L69.2336 13.442L67.6496 17.96H70.8176ZM71.7536 20.642H66.7136L65.9036 23H62.1416L67.3076 9.428H71.1596L76.3256 23H72.5636L71.7536 20.642ZM72.5996 5.972L69.1436 8.348L67.7756 7.07L70.7096 4.262L72.5996 5.972ZM85.3388 12.902C84.9548 12.59 84.5708 12.362 84.1868 12.218C83.8028 12.062 83.4308 11.984 83.0708 11.984C82.6148 11.984 82.2428 12.092 81.9548 12.308C81.6668 12.524 81.5228 12.806 81.5228 13.154C81.5228 13.394 81.5948 13.592 81.7388 13.748C81.8828 13.904 82.0688 14.042 82.2968 14.162C82.5368 14.27 82.8008 14.366 83.0888 14.45C83.3888 14.534 83.6828 14.624 83.9708 14.72C85.1228 15.104 85.9628 15.62 86.4908 16.268C87.0308 16.904 87.3008 17.738 87.3008 18.77C87.3008 19.466 87.1808 20.096 86.9408 20.66C86.7128 21.224 86.3708 21.71 85.9148 22.118C85.4708 22.514 84.9188 22.82 84.2588 23.036C83.6108 23.264 82.8728 23.378 82.0448 23.378C80.3288 23.378 78.7388 22.868 77.2748 21.848L78.7868 19.004C79.3148 19.472 79.8368 19.82 80.3528 20.048C80.8688 20.276 81.3788 20.39 81.8828 20.39C82.4588 20.39 82.8848 20.258 83.1608 19.994C83.4488 19.73 83.5928 19.43 83.5928 19.094C83.5928 18.89 83.5568 18.716 83.4848 18.572C83.4128 18.416 83.2928 18.278 83.1248 18.158C82.9568 18.026 82.7348 17.906 82.4588 17.798C82.1948 17.69 81.8708 17.57 81.4868 17.438C81.0308 17.294 80.5808 17.138 80.1368 16.97C79.7048 16.79 79.3148 16.556 78.9668 16.268C78.6308 15.98 78.3548 15.62 78.1388 15.188C77.9348 14.744 77.8328 14.186 77.8328 13.514C77.8328 12.842 77.9408 12.236 78.1568 11.696C78.3848 11.144 78.6968 10.676 79.0928 10.292C79.5008 9.896 79.9928 9.59 80.5688 9.374C81.1568 9.158 81.8108 9.05 82.5308 9.05C83.2028 9.05 83.9048 9.146 84.6368 9.338C85.3688 9.518 86.0708 9.788 86.7428 10.148L85.3388 12.902Z" fill="white"/>
</svg>
