<svg width="71" height="33" viewBox="0 0 71 33" fill="none" xmlns="http://www.w3.org/2000/svg">
<path d="M7.41113 6.01758L6.11914 6.7832C5.8776 6.36393 5.64746 6.09049 5.42871 5.96289C5.20085 5.81706 4.9069 5.74414 4.54688 5.74414C4.10482 5.74414 3.73796 5.86947 3.44629 6.12012C3.15462 6.36621 3.00879 6.67611 3.00879 7.0498C3.00879 7.56478 3.3916 7.97949 4.15723 8.29395L5.20996 8.72461C6.06673 9.07096 6.69336 9.49479 7.08984 9.99609C7.48633 10.4928 7.68457 11.1035 7.68457 11.8281C7.68457 12.7988 7.361 13.6009 6.71387 14.2344C6.06217 14.8724 5.25326 15.1914 4.28711 15.1914C3.37109 15.1914 2.61458 14.9202 2.01758 14.3779C1.42969 13.8356 1.06283 13.0723 0.916992 12.0879L2.53027 11.7324C2.60319 12.3522 2.73079 12.7806 2.91309 13.0176C3.24121 13.4733 3.71973 13.7012 4.34863 13.7012C4.84538 13.7012 5.25781 13.5348 5.58594 13.2021C5.91406 12.8695 6.07812 12.4479 6.07812 11.9375C6.07812 11.7324 6.0485 11.5456 5.98926 11.377C5.93457 11.2038 5.8457 11.0465 5.72266 10.9053C5.60417 10.7594 5.44922 10.625 5.25781 10.502C5.06641 10.3743 4.83854 10.2536 4.57422 10.1396L3.55566 9.71582C2.111 9.10514 1.38867 8.21191 1.38867 7.03613C1.38867 6.24316 1.69173 5.58008 2.29785 5.04688C2.90397 4.50911 3.6582 4.24023 4.56055 4.24023C5.77734 4.24023 6.72754 4.83268 7.41113 6.01758ZM15.4297 5.94238H11.1982V8.47852H15.3066V9.97559H11.1982V13.5029H15.4297V15H9.60547V4.44531H15.4297V5.94238ZM23.3457 5.94238H19.1143V8.47852H23.2227V9.97559H19.1143V13.5029H23.3457V15H17.5215V4.44531H23.3457V5.94238ZM29.3887 15L31.6104 3.65234L35.2334 11.8555L38.9863 3.65234L40.9824 15H39.3486L38.3301 8.62891L35.2061 15.4854L32.1709 8.62207L31.0361 15H29.3887ZM42.6982 9.6748C42.6982 8.18913 43.2428 6.91309 44.332 5.84668C45.4167 4.78027 46.7201 4.24707 48.2422 4.24707C49.7461 4.24707 51.0358 4.78483 52.1113 5.86035C53.1914 6.93587 53.7314 8.22786 53.7314 9.73633C53.7314 11.2539 53.1891 12.5413 52.1045 13.5986C51.0153 14.6605 49.7005 15.1914 48.1602 15.1914C46.7975 15.1914 45.5739 14.7197 44.4893 13.7764C43.2952 12.7327 42.6982 11.3656 42.6982 9.6748ZM44.3047 9.69531C44.3047 10.862 44.6966 11.8213 45.4805 12.5732C46.2598 13.3252 47.1598 13.7012 48.1807 13.7012C49.2881 13.7012 50.2223 13.3184 50.9834 12.5527C51.7445 11.778 52.125 10.8346 52.125 9.72266C52.125 8.59701 51.749 7.65365 50.9971 6.89258C50.2497 6.12695 49.3245 5.74414 48.2217 5.74414C47.1234 5.74414 46.196 6.12695 45.4395 6.89258C44.6829 7.64909 44.3047 8.58333 44.3047 9.69531ZM59.3096 10.502L62.5771 15H60.6289L57.6143 10.6797H57.3271V15H55.7344V4.44531H57.6006C58.9951 4.44531 60.0023 4.70736 60.6221 5.23145C61.3057 5.81478 61.6475 6.58496 61.6475 7.54199C61.6475 8.28939 61.4333 8.93197 61.0049 9.46973C60.5765 10.0075 60.0114 10.3516 59.3096 10.502ZM57.3271 9.29199H57.833C59.3415 9.29199 60.0957 8.71549 60.0957 7.5625C60.0957 6.48242 59.362 5.94238 57.8945 5.94238H57.3271V9.29199ZM69.9941 5.94238H65.7627V8.47852H69.8711V9.97559H65.7627V13.5029H69.9941V15H64.1699V4.44531H69.9941V5.94238Z" fill="white"/>
<path d="M41 26L35 32L29 26" stroke="white" stroke-width="2" stroke-linecap="round" stroke-linejoin="round"/>
</svg>
