<svg width="63" height="33" viewBox="0 0 63 33" fill="none" xmlns="http://www.w3.org/2000/svg">
<path d="M2.22168 4.44531L5.14062 11.7598L8.10059 4.44531H9.84375L5.10645 15.793L0.478516 4.44531H2.22168ZM16.9873 5.94238H12.7559V8.47852H16.8643V9.97559H12.7559V13.5029H16.9873V15H11.1631V4.44531H16.9873V5.94238ZM22.6543 10.502L25.9219 15H23.9736L20.959 10.6797H20.6719V15H19.0791V4.44531H20.9453C22.3398 4.44531 23.347 4.70736 23.9668 5.23145C24.6504 5.81478 24.9922 6.58496 24.9922 7.54199C24.9922 8.28939 24.778 8.93197 24.3496 9.46973C23.9212 10.0075 23.3561 10.3516 22.6543 10.502ZM20.6719 9.29199H21.1777C22.6862 9.29199 23.4404 8.71549 23.4404 7.5625C23.4404 6.48242 22.7067 5.94238 21.2393 5.94238H20.6719V9.29199ZM31.4658 15L33.6875 3.65234L37.3105 11.8555L41.0635 3.65234L43.0596 15H41.4258L40.4072 8.62891L37.2832 15.4854L34.248 8.62207L33.1133 15H31.4658ZM51.502 12.4365H46.9834L45.8076 15H44.0918L49.3145 3.78223L54.3525 15H52.6094L51.502 12.4365ZM50.8525 10.9395L49.2871 7.35059L47.6465 10.9395H50.8525ZM51.7344 1.6084L48.9453 3.49512L48.1865 2.85938L50.3809 0.658203L51.7344 1.6084ZM61.6465 6.01758L60.3545 6.7832C60.113 6.36393 59.8828 6.09049 59.6641 5.96289C59.4362 5.81706 59.1423 5.74414 58.7822 5.74414C58.3402 5.74414 57.9733 5.86947 57.6816 6.12012C57.39 6.36621 57.2441 6.67611 57.2441 7.0498C57.2441 7.56478 57.627 7.97949 58.3926 8.29395L59.4453 8.72461C60.3021 9.07096 60.9287 9.49479 61.3252 9.99609C61.7217 10.4928 61.9199 11.1035 61.9199 11.8281C61.9199 12.7988 61.5964 13.6009 60.9492 14.2344C60.2975 14.8724 59.4886 15.1914 58.5225 15.1914C57.6064 15.1914 56.8499 14.9202 56.2529 14.3779C55.665 13.8356 55.2982 13.0723 55.1523 12.0879L56.7656 11.7324C56.8385 12.3522 56.9661 12.7806 57.1484 13.0176C57.4766 13.4733 57.9551 13.7012 58.584 13.7012C59.0807 13.7012 59.4932 13.5348 59.8213 13.2021C60.1494 12.8695 60.3135 12.4479 60.3135 11.9375C60.3135 11.7324 60.2839 11.5456 60.2246 11.377C60.1699 11.2038 60.0811 11.0465 59.958 10.9053C59.8395 10.7594 59.6846 10.625 59.4932 10.502C59.3018 10.3743 59.0739 10.2536 58.8096 10.1396L57.791 9.71582C56.3464 9.10514 55.624 8.21191 55.624 7.03613C55.624 6.24316 55.9271 5.58008 56.5332 5.04688C57.1393 4.50911 57.8936 4.24023 58.7959 4.24023C60.0127 4.24023 60.9629 4.83268 61.6465 6.01758Z" fill="white"/>
<path d="M37 26L31 32L25 26" stroke="white" stroke-width="2" stroke-linecap="round" stroke-linejoin="round"/>
</svg>
