<svg width="424" height="58" viewBox="0 0 424 58" fill="none" xmlns="http://www.w3.org/2000/svg">
<g opacity="0.8">
<path d="M424 58H0V0.798828H424V58ZM1.02039 56.9826H422.98V1.81628H1.02039V56.9826Z" fill="white"/>
</g>
<path d="M286.935 20.1984V22.3757H290.764V25.2449H286.935V27.4901H290.968V30.3593H283.533V17.3359H290.968V20.2052H286.935V20.1984Z" fill="white"/>
<path d="M298.199 27.4901H302.274V30.3593H294.805V17.3359H298.199V27.4901Z" fill="white"/>
<path d="M312.791 17.3281H317.988C320.798 17.3281 322.736 18.6237 322.736 21.615C322.736 24.6063 321.07 26.0375 318.111 26.0375H316.186V30.3583H312.791V17.3349V17.3281ZM316.186 23.304H316.757C317.988 23.304 319.199 23.304 319.199 21.7167C319.199 20.1295 318.07 20.0617 316.757 20.0617H316.186V23.3107V23.304Z" fill="white"/>
<path d="M328.015 28.0938L327.117 30.3593H323.512L328.532 17.3359H332.239L337.158 30.3593H333.539L332.688 28.0938H328.008H328.015ZM330.389 21.3583H330.355L328.954 25.5027H331.777L330.389 21.3583Z" fill="white"/>
<path d="M341.138 16.5353L339.736 15.5178L342.178 12.5469L344.104 13.9306L341.138 16.5421V16.5353ZM343.355 30.3523H339.961V17.3289H343.355V30.3523Z" fill="white"/>
<path d="M354.478 20.6861C353.852 20.1705 353.056 19.8246 352.226 19.8246C351.6 19.8246 350.77 20.1841 350.77 20.9099C350.77 21.6357 351.688 21.9613 352.273 22.1512L353.137 22.4089C354.954 22.9448 356.362 23.8605 356.362 25.97C356.362 27.2656 356.049 28.5951 355.008 29.4769C353.988 30.3383 352.62 30.7046 351.301 30.7046C349.654 30.7046 348.042 30.1484 346.709 29.2191L348.165 26.4923C349.015 27.2317 350.015 27.8421 351.178 27.8421C351.974 27.8421 352.825 27.4419 352.825 26.5262C352.825 25.6105 351.491 25.251 350.763 25.0408C348.634 24.4371 347.226 23.8809 347.226 21.3644C347.226 18.8479 349.117 16.9961 351.729 16.9961C353.049 16.9961 354.654 17.4099 355.818 18.0678L354.464 20.6928L354.478 20.6861Z" fill="white"/>
<path d="M367.389 17.3281H372.205C375.844 17.3281 378.837 20.177 378.837 23.8398C378.837 27.5027 375.824 30.3515 372.205 30.3515H367.389V17.3281ZM370.783 27.4823H371.545C373.572 27.4823 375.307 26.3767 375.307 23.8398C375.307 21.5065 373.763 20.1973 371.579 20.1973H370.783V27.4891V27.4823Z" fill="white"/>
<path d="M385.545 20.1984V22.3757H389.375V25.2449H385.545V27.4901H389.579V30.3593H382.144V17.3359H389.579V20.2052H385.545V20.1984Z" fill="white"/>
<path d="M286.935 43.8905H291.009V46.7597H283.54V33.7363H286.935V43.8905Z" fill="white"/>
<path d="M297.172 44.4942L296.274 46.7597H292.669L297.689 33.7363H301.397L306.315 46.7597H302.696L301.846 44.4942H297.165H297.172ZM299.546 37.7587H299.512L298.111 41.9031H300.934L299.546 37.7587Z" fill="white"/>
<path d="M316.791 46.7539V33.7305H321.641C323.961 33.7305 325.519 34.6258 325.519 37.1152C325.519 38.2887 325.138 39.2383 324.083 39.7741V39.8081C325.954 40.0522 326.75 41.3071 326.75 43.1249C326.75 45.8517 324.41 46.7539 322.022 46.7539H316.791ZM320.186 38.8449H320.566C321.464 38.8449 322.403 38.6889 322.403 37.5832C322.403 36.3894 321.349 36.3216 320.43 36.3216H320.186V38.8449ZM320.186 44.1628H320.621C321.628 44.1628 323.322 44.217 323.322 42.779C323.322 41.2054 321.641 41.3614 320.532 41.3614H320.186V44.156V44.1628Z" fill="white"/>
<path d="M333.648 36.5988V38.7761H337.478V41.6453H333.648V43.8905H337.682V46.7597H330.247V33.7363H337.682V36.6055H333.648V36.5988Z" fill="white"/>
<path d="M344.913 43.8905H348.988V46.7597H341.519V33.7363H344.913V43.8905Z" fill="white"/>
<path d="M355.226 43.8905H359.3V46.7597H351.831V33.7363H355.226V43.8905Z" fill="white"/>
<path d="M365.532 36.5988V38.7761H369.362V41.6453H365.532V43.8905H369.566V46.7597H362.131V33.7363H369.566V36.6055H365.532V36.5988Z" fill="white"/>
<path d="M383.675 43.8905V46.7597H372.484L378.668 36.6055H373.539V33.7363H384.348L378.199 43.8905H383.675Z" fill="white"/>
<path d="M390.708 44.4942L389.81 46.7597H386.205L391.225 33.7363H394.933L399.851 46.7597H396.232L395.382 44.4942H390.702H390.708ZM393.083 37.7587H393.049L391.647 41.9031H394.47L393.083 37.7587Z" fill="white"/>
<path opacity="0.8" d="M256.982 1.30664H255.962V57.4904H256.982V1.30664Z" fill="white"/>
<path d="M47.0535 23.9962C45.2508 21.5747 42.3256 20.2723 39.3121 20.2723C33.9108 20.2723 30.2646 24.3964 30.2646 29.6465C30.2646 34.8965 33.9516 38.8443 39.4413 38.8443C42.3188 38.8443 45.2032 37.4537 47.0467 35.256V45.7969C44.1215 46.6922 42.0059 47.3705 39.2645 47.3705C34.5367 47.3705 30.0401 45.573 26.53 42.3918C22.7953 39.0274 21.0879 34.632 21.0879 29.6058C21.0879 24.9865 22.843 20.5437 26.081 17.22C29.4143 13.8081 34.2237 11.7461 38.9924 11.7461C41.8291 11.7461 44.4345 12.3769 47.0467 13.4486V23.9894L47.0535 23.9962Z" fill="white"/>
<path d="M77.2915 34.992C77.2915 42.7993 70.8086 47.2421 63.387 47.2421C55.9653 47.2421 49.4824 42.8467 49.4824 34.992C49.4824 27.1373 55.9653 22.7012 63.387 22.7012C70.8086 22.7012 77.2915 27.1441 77.2915 34.992ZM58.1217 34.992C58.1217 37.9087 60.0537 40.1539 63.387 40.1539C66.7202 40.1539 68.6522 37.9087 68.6522 34.992C68.6522 32.0753 66.7202 29.7894 63.387 29.7894C60.0537 29.7894 58.1217 32.1635 58.1217 34.992Z" fill="white"/>
<path d="M88.0458 46.4751H79.8555V9.23633H88.0458V46.4751Z" fill="white"/>
<path d="M118.419 34.992C118.419 42.7993 111.937 47.2421 104.515 47.2421C97.0932 47.2421 90.6104 42.8467 90.6104 34.992C90.6104 27.1373 97.0932 22.7012 104.515 22.7012C111.937 22.7012 118.419 27.1441 118.419 34.992ZM99.2497 34.992C99.2497 37.9087 101.182 40.1539 104.515 40.1539C107.848 40.1539 109.78 37.9087 109.78 34.992C109.78 32.0753 107.848 29.7894 104.515 29.7894C101.182 29.7894 99.2497 32.1635 99.2497 34.992Z" fill="white"/>
<path d="M129.175 26.3291H129.263C131.195 23.7719 133.583 22.6934 136.556 22.6934C139.882 22.6934 142.766 24.0364 144.433 27.0888C146.004 24.2195 149.113 22.6934 152.263 22.6934C158.113 22.6934 160.14 26.5054 160.14 31.8029V46.4746H151.95V35.4794C151.95 33.0985 152.038 29.1983 148.576 29.1983C144.794 29.1983 144.664 32.7458 144.664 35.4794V46.4746H136.474V35.4794C136.474 32.9222 136.474 29.0151 132.828 29.0151C129.182 29.0151 129.182 32.9154 129.182 35.4794V46.4746H120.991V23.4598H129.182V26.3291H129.175Z" fill="white"/>
<path d="M164.093 9.23633H172.283V25.7055C174.038 23.6842 176.786 22.7006 179.439 22.7006C186.276 22.7006 191.004 28.3509 191.004 34.9508C191.004 41.5506 186.235 47.2416 179.351 47.2416C176.65 47.2416 173.861 46.2106 172.378 43.9247H172.29V46.4819H164.1V9.24311L164.093 9.23633ZM172.011 34.9915C172.011 37.9082 173.943 40.1533 177.276 40.1533C180.61 40.1533 182.541 37.9082 182.541 34.9915C182.541 32.0748 180.61 29.7889 177.276 29.7889C173.943 29.7889 172.011 32.1629 172.011 34.9915Z" fill="white"/>
<path d="M202.608 14.6215C202.608 17.1312 200.54 19.2 198.017 19.2C195.493 19.2 193.425 17.138 193.425 14.6215C193.425 12.105 195.493 10.043 198.017 10.043C200.54 10.043 202.608 12.105 202.608 14.6215ZM202.112 46.4746H193.921V23.4598H202.112V46.4746Z" fill="white"/>
<path d="M231.629 46.4746H223.439V43.9174H223.35C221.908 46.2033 219.078 47.2343 216.377 47.2343C209.541 47.2343 204.725 41.5366 204.725 34.9435C204.725 28.3504 209.452 22.6934 216.289 22.6934C218.942 22.6934 221.731 23.6837 223.445 25.6982V23.4531H231.636V46.4678L231.629 46.4746ZM213.18 34.991C213.18 37.9077 215.112 40.1528 218.445 40.1528C221.779 40.1528 223.711 37.9077 223.711 34.991C223.711 32.0743 221.779 29.7884 218.445 29.7884C215.112 29.7884 213.18 32.1625 213.18 34.991Z" fill="white"/>
</svg>
