<svg width="125" height="21" viewBox="0 0 125 21" fill="none" xmlns="http://www.w3.org/2000/svg">
<path d="M18.8003 3.65665C14.6222 3.65665 11.9403 6.64932 11.9403 10.3421C11.9403 14.035 14.2898 17.0264 18.8003 17.0264C23.3107 17.0264 25.6593 14.0337 25.6593 10.3421C25.6593 6.65058 22.978 3.65665 18.8003 3.65665ZM18.8003 12.9434C17.5326 12.9434 16.505 11.8244 16.505 10.4423C16.505 9.0601 17.5326 7.94012 18.8003 7.94012C20.0679 7.94012 21.0956 9.05917 21.0956 10.4423C21.0956 11.8253 20.0679 12.9434 18.8003 12.9434ZM43.1446 3.65665H43.1436C38.9668 3.65665 36.2846 6.64932 36.2846 10.3421C36.2846 14.035 38.6332 17.0264 43.1436 17.0264H43.1446C47.6541 17.0264 50.0036 14.0337 50.0036 10.3421C50.0036 6.65058 47.3223 3.65665 43.1446 3.65665ZM43.1436 12.9434C41.8769 12.9434 40.8493 11.8244 40.8493 10.4423C40.8493 9.0601 41.8769 7.94012 43.1436 7.94012C44.4104 7.94012 45.4389 9.05917 45.4389 10.4423C45.4389 11.8253 44.4113 12.9434 43.1436 12.9434ZM11.1078 15.1812C11.1078 15.1812 11.4268 15.8013 11.0446 16.0362C9.97049 16.7404 8.59338 17.1506 6.9229 17.1506C2.25469 17.2128 -6.10352e-05 14.1082 -6.10352e-05 10.355C-6.10352e-05 6.60177 2.70583 3.56061 6.92321 3.56061C8.5965 3.56061 10.0319 4.03895 11.1543 4.85234C11.2098 4.90866 11.2934 5.08792 11.1197 5.616L10.1956 8.52639C10.1956 8.52639 10.0129 9.09608 9.56675 8.79075C9.1206 8.48478 8.30905 7.81311 7.17294 7.81311C6.03683 7.81311 4.73954 8.74914 4.73954 10.5411C4.73954 12.3331 6.68626 12.9622 7.31511 12.9622C7.94396 12.9622 8.83626 12.7392 9.404 12.1688C9.404 12.1688 9.80962 11.7002 10.0537 12.1072L11.1082 15.1809L11.1078 15.1812ZM35.0721 13.0029V16.7555C35.0721 16.905 34.9508 17.0267 34.8018 17.0267H26.9329C26.7848 17.0267 26.6635 16.905 26.6635 16.7555V3.9282C26.6635 3.77835 26.7848 3.65665 26.9329 3.65665H30.9507C31.0988 3.65665 31.2214 3.77835 31.2214 3.9282V12.4601C31.2214 12.6096 31.3426 12.7313 31.4907 12.7313H34.8018C34.9508 12.7313 35.0721 12.853 35.0721 13.0026V13.0029ZM65.863 3.92538L67.781 16.7583C67.8028 16.9059 67.6993 17.0267 67.55 17.0267H63.5973C63.4492 17.0267 63.3139 16.9059 63.2983 16.7573L62.6367 10.686C62.6202 10.5374 62.5728 10.5333 62.5313 10.6769L60.7486 16.7661C60.7071 16.9097 60.5509 17.0264 60.4022 17.0264H58.1543C58.0062 17.0264 57.85 16.9097 57.808 16.7661L56.0258 10.6769C55.9834 10.533 55.9361 10.5374 55.9202 10.686L55.2589 16.7573C55.2421 16.9059 55.1077 17.0267 54.959 17.0267H51.0063C50.8582 17.0267 50.7547 16.9059 50.7762 16.7583L52.6945 3.92538C52.716 3.77772 52.8567 3.65665 53.0048 3.65665H57.3138C57.4628 3.65665 57.6128 3.77553 57.6483 3.92038L59.215 10.3543C59.2505 10.4998 59.3076 10.4998 59.3431 10.3543L60.9089 3.92038C60.9444 3.77553 61.0953 3.65665 61.2434 3.65665H65.5524C65.7015 3.65665 65.8405 3.77772 65.8633 3.92538H65.863ZM77.9511 10.0234C78.8091 9.4033 79.3697 8.39468 79.3697 7.25374C79.3697 5.48147 78.025 4.02643 76.3043 3.85593V3.8381H69.0032V17.0267H76.3043V17.0248C78.3249 16.9998 79.9552 15.3505 79.9552 13.3179C79.9552 11.8826 79.1408 10.6393 77.9511 10.0234ZM73.4494 7.01003H74.2778V7.01316C74.2868 7.01191 74.2955 7.01003 74.3036 7.01003C74.8118 7.01003 75.2228 7.42299 75.2228 7.9323C75.2228 8.44161 74.8118 8.85457 74.3036 8.85457C74.2955 8.85457 74.2868 8.85144 74.2778 8.85144V8.85457H73.4494V7.01035V7.01003ZM74.434 13.6974C74.424 13.6974 74.4149 13.6952 74.4043 13.6952V13.6974H73.4497V11.5726H74.4043V11.5754C74.4149 11.5744 74.424 11.5726 74.434 11.5726C75.0192 11.5726 75.4931 12.0481 75.4931 12.6356C75.4931 13.2231 75.0192 13.6974 74.434 13.6974ZM85.9051 4.10965V16.7555C85.9051 16.905 85.7838 17.0267 85.6345 17.0267H81.4882C81.3391 17.0267 81.2179 16.905 81.2179 16.7555V4.10934C81.2179 3.95948 81.3391 3.83779 81.4882 3.83779H85.6345C85.7838 3.83779 85.9051 3.95948 85.9051 4.10934V4.10965ZM100.755 16.7683L96.71 4.09682C96.6647 3.95542 96.5057 3.83841 96.3567 3.83841H91.6405C91.4924 3.83841 91.3337 3.95542 91.2882 4.09682L87.2439 16.7683C87.1983 16.9109 87.2831 17.0267 87.4312 17.0267H91.5785C91.7265 17.0267 91.8855 16.9109 91.9308 16.7683L92.3364 15.4963C92.3819 15.3549 92.5406 15.2388 92.6899 15.2388H95.3079C95.4569 15.2388 95.6147 15.3549 95.6602 15.4963L96.0668 16.7683C96.111 16.9109 96.2704 17.0267 96.4191 17.0267H100.566C100.714 17.0267 100.799 16.9109 100.754 16.7683H100.755ZM93.1432 11.9927L93.9991 8.15598L94.8549 11.9927H93.1432Z" fill="white"/>
<path d="M120.229 10.7998C120.229 9.77591 119.468 8.94562 118.529 8.94562C117.741 8.94562 117.079 9.5297 116.885 10.3221C117.221 10.7204 117.507 11.1621 117.731 11.6389C117.761 11.7027 117.79 11.7672 117.818 11.8319C117.845 11.8954 117.871 11.9602 117.895 12.0249C117.967 12.2086 118.028 12.3966 118.081 12.5884C118.224 12.6306 118.374 12.6538 118.528 12.6538C119.467 12.6538 120.229 11.8235 120.229 10.7995L120.229 10.7998Z" fill="white"/>
<path d="M124.734 11.6387H124.731C124.632 7.13252 121.082 3.46567 116.634 3.19788C117.066 4.00658 117.338 4.9132 117.409 5.87489C117.764 5.80731 118.137 5.77165 118.529 5.77165C121.625 5.77165 123.612 7.98972 123.612 10.7259C123.612 13.462 121.871 15.6798 118.529 15.6798C118.389 15.6798 118.253 15.6744 118.119 15.6669C117.562 17.8844 115.775 19.6166 113.531 20.0859C114.346 20.3433 115.214 20.4822 116.113 20.4822C120.802 20.4822 124.628 16.7059 124.731 12.0251" fill="white"/>
<path d="M114.399 0.736328C115.205 1.27223 115.89 1.97738 116.404 2.80048C120.336 2.92687 123.64 5.59449 124.733 9.21724V0.736328H114.399Z" fill="white"/>
<path d="M110.53 5.69967C111.77 5.69967 112.833 6.05506 113.665 6.65728C113.706 6.69983 113.768 6.83248 113.639 7.22322L113.308 8.26718C113.535 8.30566 113.757 8.35666 113.974 8.41985C114.564 7.23605 115.625 6.33631 117.03 5.96246C116.964 4.95447 116.663 4.00999 116.183 3.18252C116.16 3.18252 116.136 3.18158 116.113 3.18158C114.229 3.18158 112.484 3.79163 111.064 4.82464C110.999 4.87188 110.935 4.92006 110.872 4.96886C110.807 5.01892 110.743 5.0696 110.68 5.12153C110.449 5.30986 110.23 5.51071 110.02 5.72157C110.186 5.7078 110.356 5.69998 110.53 5.69998V5.69967Z" fill="white"/>
<path d="M117.607 12.3578C117.568 12.2455 117.527 12.1341 117.482 12.0253C117.455 11.9602 117.425 11.8961 117.396 11.8322C117.365 11.7672 117.334 11.7027 117.301 11.6392C117.164 11.3705 117.006 11.1143 116.83 10.8724C116.852 11.4959 117.156 12.04 117.607 12.3581V12.3578Z" fill="white"/>
<path d="M113.447 10.7261C113.447 10.0338 113.574 9.37496 113.815 8.77649C113.611 8.71955 113.403 8.67325 113.191 8.63947L112.956 9.38028C112.956 9.38028 112.821 9.80262 112.49 9.57643C112.159 9.35025 111.558 8.85251 110.717 8.85251C110.648 8.85251 110.578 8.85752 110.508 8.8669C110.197 8.97296 109.898 9.10592 109.613 9.26296C109.208 9.59927 108.913 10.1392 108.913 10.8735C108.913 12.2006 110.356 12.6683 110.822 12.6683C111.288 12.6683 111.949 12.5025 112.37 12.0801C112.37 12.0801 112.67 11.7332 112.851 12.0348L113.633 14.3123C113.633 14.3123 113.869 14.7718 113.585 14.9458C112.79 15.4676 111.769 15.7717 110.531 15.7717C108.823 15.7945 107.551 15.2446 106.701 14.3473C106.777 17.2402 109.038 19.5953 111.886 19.809C111.962 19.8146 112.038 19.819 112.115 19.8218C112.179 19.824 112.243 19.8268 112.308 19.8268C112.319 19.8268 112.329 19.8262 112.34 19.8259C112.394 19.8259 112.447 19.8237 112.5 19.8218C112.591 19.8187 112.682 19.8133 112.771 19.8058C115.164 19.6084 117.135 17.8987 117.731 15.634C114.911 15.3068 113.447 13.2348 113.447 10.7265L113.447 10.7261Z" fill="white"/>
<path d="M109.412 5.80233C109.796 5.37311 110.22 4.98017 110.679 4.63104C110.742 4.58255 110.806 4.535 110.871 4.48838C110.934 4.44271 110.998 4.39734 111.063 4.35323C112.46 3.40062 114.137 2.83187 115.942 2.79808C115.357 1.93651 114.567 1.22666 113.644 0.736749C113.514 0.667923 113.381 0.603477 113.246 0.543411C113.086 0.472395 112.923 0.407949 112.756 0.350386C112.106 0.124512 111.408 0 110.682 0C107.238 0 104.427 2.7596 104.325 6.18994C104.323 6.25439 104.32 6.31821 104.32 6.38297C104.32 6.44773 104.323 6.51186 104.325 6.57599C104.363 7.84552 104.772 9.02275 105.446 10.0023C105.723 7.90246 107.187 6.22311 109.411 5.8017L109.412 5.80233Z" fill="white"/>
<path d="M106.311 14.1973C106.311 14.0922 106.314 13.9877 106.319 13.8842C105.704 13.0179 105.399 11.9211 105.399 10.7363C105.399 10.6872 105.401 10.6387 105.403 10.5899C104.942 10.0087 104.573 9.35043 104.322 8.63715V19.8267H110.195C107.928 18.9676 106.312 16.7689 106.312 14.1973H106.311Z" fill="white"/>
</svg>
