<svg width="285" height="47" viewBox="0 0 285 47" fill="none" xmlns="http://www.w3.org/2000/svg">
<g clip-path="url(#clip0_1246_2554)">
<path d="M13.4036 0V13.1721H0.231445L13.4036 0Z" fill="white"/>
<path d="M33.1621 46.1018V32.9297H46.3342L33.1621 46.1018Z" fill="white"/>
<path d="M30.8803 32.9294V46.1015H0V15.4531H13.1721V32.9294H30.8803Z" fill="white"/>
<path d="M15.6855 13.1721V0H46.3339V30.6484H33.1618V13.1721H15.6855Z" fill="white"/>
<path d="M69.3481 4.5918H61.584V25.797H66.4169V19.916H68.9307C73.9583 19.916 77.9749 16.8548 77.9749 12.291V12.2353C77.9749 7.74568 74.1346 4.5918 69.3667 4.5918H69.3481ZM73.3368 12.3838C73.3368 14.1369 71.0085 15.0924 69.0605 15.0924H66.4076V9.42466H68.9771C71.1013 9.42466 73.3368 10.4729 73.3368 12.3281V12.3838Z" fill="white"/>
<path d="M276.281 4.5918H271.939L263.22 25.797H268.164L269.991 21.3909H278.126L279.954 25.797H285.009L276.29 4.5918H276.281ZM271.726 16.9847L274.054 11.0665L276.383 16.9847H271.717H271.726Z" fill="white"/>
<path d="M260.242 4.5918H255.409V25.797H260.242V4.5918Z" fill="white"/>
<path d="M248.285 14.9254C249.88 13.8679 250.576 12.4116 250.576 10.4821V10.4265C250.576 8.95158 250.122 7.62509 249.166 6.62327C247.969 5.38027 246.124 4.5918 243.814 4.5918H234.621V25.797H244.046C248.925 25.797 251.847 23.8769 251.847 20.1201V20.0644C251.847 17.5969 250.697 15.9922 248.294 14.9254H248.285ZM239.445 9.41539H243.155C244.148 9.41539 245.743 9.5267 245.743 11.1964V11.2521C245.743 12.56 244.816 12.9867 242.868 12.9867H239.445V9.41539ZM247.005 19.5542C247.005 20.9085 245.957 21.3816 244.036 21.3816H239.445V17.3929H243.897C245.91 17.3929 247.005 18.1442 247.005 19.4985V19.5542Z" fill="white"/>
<path d="M219.854 13.1629L214.733 4.5918H209.845V25.797H214.668V13.098L219.622 21.3909H219.974L225.382 13.0145V25.797H230.215V4.5918H224.974L219.854 13.1629Z" fill="white"/>
<path d="M195.587 4.48047C189.512 4.48047 184.846 9.29478 184.846 15.4356V15.4912C184.846 21.697 189.382 26.3814 195.523 26.3814C201.663 26.3814 206.264 21.5671 206.264 15.4263V15.3707C206.264 9.16492 201.728 4.48047 195.587 4.48047ZM201.227 15.4912C201.227 19.0533 198.769 21.7434 195.485 21.7434C192.202 21.7434 189.679 19.0347 189.679 15.4356V15.3799C189.679 11.8179 192.137 9.12781 195.42 9.12781C198.704 9.12781 201.227 11.8364 201.227 15.4356V15.4912Z" fill="white"/>
<path d="M173.723 4.5918H168.891V25.797H183.593V21.3909H173.723V4.5918Z" fill="white"/>
<path d="M155.375 4.48047C149.299 4.48047 144.531 9.29478 144.531 15.4356V15.4912C144.531 21.697 149.169 26.3814 155.319 26.3814C161.469 26.3814 166.163 21.5671 166.163 15.4263V15.3707C166.163 9.16492 161.525 4.48047 155.375 4.48047ZM160.913 15.4912C160.913 19.0533 158.659 21.7434 155.375 21.7434C152.091 21.7434 149.782 19.0347 149.782 15.4356V15.3799C149.782 11.8179 152.036 9.12781 155.319 9.12781C158.603 9.12781 160.913 11.8364 160.913 15.4356V15.4912Z" fill="white"/>
<path d="M139.949 19.3687C138.362 20.8714 137.082 21.7434 134.921 21.7434C131.749 21.7434 129.411 19.0347 129.411 15.4356V15.3799C129.411 11.8179 131.749 9.12781 134.921 9.12781C136.674 9.12781 138.177 9.8328 139.847 11.4097L139.995 11.5674L143.047 7.88481L142.908 7.74567C140.7 5.48229 138.381 4.48047 135.042 4.48047C128.994 4.48047 124.578 9.19275 124.578 15.4356V15.4912C124.578 18.4503 125.478 21.1868 127.398 23.209C129.337 25.2497 131.916 26.3814 134.791 26.3814C138.307 26.3814 140.681 25.2868 143.093 22.606L143.205 22.4576L140.116 19.2202L139.949 19.3687Z" fill="white"/>
<path d="M110.96 4.48047C104.885 4.48047 100.015 9.29478 100.015 15.4356V15.4912C100.015 21.697 104.755 26.3814 110.905 26.3814C117.055 26.3814 121.851 21.5671 121.851 15.4263V15.3707C121.851 9.16492 117.111 4.48047 110.96 4.48047ZM117.018 15.4912C117.018 19.0533 114.346 21.7434 111.063 21.7434C107.779 21.7434 105.052 19.0347 105.052 15.4356V15.3799C105.052 11.8179 107.723 9.12781 111.007 9.12781C114.291 9.12781 117.018 11.8364 117.018 15.4356V15.4912Z" fill="white"/>
<path d="M93.3455 18.3854C96.0356 17.2444 97.4919 15.0553 97.4919 11.9663V11.9107C97.4919 9.9163 96.8983 8.09818 95.7387 6.89228C94.3751 5.47303 92.3251 4.5918 89.7835 4.5918H80.4795V25.797H85.099V19.4985H88.3828L92.6591 25.797H98.3082L93.3455 18.3854ZM92.455 12.2075C92.455 13.8865 91.4439 15.0924 89.5052 15.0924H85.1083V9.42466H89.4217C91.5088 9.42466 92.455 10.3801 92.455 12.1518V12.2075Z" fill="white"/>
<path d="M61.584 36.6602H66.1386V37.6249H62.6693V39.2204H65.749V40.1851H62.6693V41.8362H66.1849V42.801H61.584V36.6602Z" fill="white"/>
<path d="M68.9216 39.6749L66.7695 36.6602H68.0404L69.5709 38.8586L71.1015 36.6602H72.3352L70.1924 39.6563L72.4187 42.801H71.1479L69.5338 40.4726L67.9105 42.801H66.6768L68.9123 39.6749H68.9216Z" fill="white"/>
<path d="M73.2344 36.6602H75.6554C77.084 36.6602 77.993 37.4765 77.993 38.7102V38.7287C77.993 40.1016 76.8892 40.8251 75.5349 40.8251H74.3197V42.801H73.2437V36.6602H73.2344ZM75.572 39.8511C76.3883 39.8511 76.8985 39.3966 76.8985 38.7566V38.738C76.8985 38.0145 76.379 37.6434 75.572 37.6434H74.3197V39.8511H75.572Z" fill="white"/>
<path d="M78.5225 39.7476V39.7291C78.5225 38.0037 79.8582 36.5566 81.7413 36.5566C83.6243 36.5566 84.9415 37.9852 84.9415 39.7105V39.7291C84.9415 41.4544 83.6058 42.9015 81.7227 42.9015C79.8397 42.9015 78.5225 41.473 78.5225 39.7476ZM83.8099 39.7476V39.7291C83.8099 38.5325 82.9379 37.5492 81.7227 37.5492C80.5076 37.5492 79.6542 38.5232 79.6542 39.7198V39.7384C79.6542 40.935 80.5261 41.9182 81.7413 41.9182C82.9565 41.9182 83.8099 40.9443 83.8099 39.7476Z" fill="white"/>
<path d="M85.9336 36.6602H88.6701C89.44 36.6602 90.0429 36.8921 90.4418 37.2724C90.7665 37.6063 90.952 38.0609 90.952 38.5989V38.6174C90.952 39.6285 90.349 40.2315 89.4864 40.4819L91.1468 42.8102H89.876L88.3639 40.6674H87.0096V42.8102H85.9336V36.6694V36.6602ZM88.5958 39.7027C89.3658 39.7027 89.8574 39.3039 89.8574 38.6731V38.6545C89.8574 37.9959 89.3843 37.6341 88.5866 37.6341H87.0189V39.6935H88.5958V39.7027Z" fill="white"/>
<path d="M93.4568 37.662H91.5088V36.6602H96.4901V37.662H94.5421V42.801H93.4568V37.662Z" fill="white"/>
<path d="M98.7072 36.6133H99.709L102.408 42.8005H101.267L100.646 41.3163H97.7425L97.1117 42.8005H96.0078L98.7072 36.6133ZM100.247 40.3608L99.1895 37.9027L98.1413 40.3608H100.256H100.247Z" fill="white"/>
<path d="M102.501 39.7476V39.7291C102.501 37.9852 103.809 36.5566 105.665 36.5566C106.796 36.5566 107.483 36.9555 108.067 37.5121L107.371 38.3098C106.88 37.8553 106.351 37.5492 105.655 37.5492C104.477 37.5492 103.633 38.5139 103.633 39.7198V39.7384C103.633 40.9443 104.487 41.9182 105.655 41.9182C106.407 41.9182 106.889 41.6121 107.418 41.1205L108.114 41.8255C107.473 42.4934 106.768 42.9108 105.618 42.9108C103.828 42.9108 102.492 41.5194 102.492 39.7569L102.501 39.7476Z" fill="white"/>
<path d="M109.004 36.6602H110.08V42.801H109.004V36.6602Z" fill="white"/>
<path d="M111.137 39.7476V39.7291C111.137 38.0037 112.472 36.5566 114.356 36.5566C116.239 36.5566 117.556 37.9852 117.556 39.7105V39.7291C117.556 41.4544 116.22 42.9015 114.337 42.9015C112.454 42.9015 111.137 41.473 111.137 39.7476ZM116.424 39.7476V39.7291C116.424 38.5325 115.552 37.5492 114.337 37.5492C113.122 37.5492 112.268 38.5232 112.268 39.7198V39.7384C112.268 40.935 113.14 41.9182 114.356 41.9182C115.571 41.9182 116.424 40.9443 116.424 39.7476Z" fill="white"/>
<path d="M118.558 36.6602H119.559L122.852 40.9086V36.6602H123.91V42.801H123.01L119.624 38.4319V42.801H118.567V36.6602H118.558Z" fill="white"/>
<path d="M125.182 36.6602H129.736V37.6249H126.267V39.2204H129.347V40.1851H126.267V41.8362H129.783V42.801H125.182V36.6602Z" fill="white"/>
<path d="M130.339 41.9002L130.988 41.1303C131.573 41.6405 132.166 41.928 132.927 41.928C133.595 41.928 134.012 41.6219 134.012 41.1581V41.1395C134.012 40.7036 133.771 40.4624 132.63 40.2027C131.322 39.8873 130.589 39.4977 130.589 38.366V38.3474C130.589 37.2992 131.471 36.5664 132.686 36.5664C133.576 36.5664 134.291 36.8354 134.912 37.3363L134.337 38.1526C133.78 37.7445 133.233 37.5219 132.667 37.5219C132.036 37.5219 131.665 37.8465 131.665 38.2454V38.2639C131.665 38.737 131.944 38.9504 133.122 39.2287C134.42 39.544 135.098 40.0079 135.098 41.0282V41.0468C135.098 42.197 134.198 42.8835 132.908 42.8835C131.971 42.8835 131.081 42.5588 130.348 41.9002H130.339Z" fill="white"/>
<path d="M139.884 37.662H137.936V36.6602H142.917V37.662H140.969V42.801H139.884V37.662Z" fill="white"/>
<path d="M143.659 40.1944V36.6602H144.735V40.148C144.735 41.2889 145.32 41.9012 146.284 41.9012C147.249 41.9012 147.824 41.3261 147.824 40.1944V36.6602H148.9V40.1387C148.9 41.9754 147.861 42.8937 146.256 42.8937C144.652 42.8937 143.641 41.9754 143.641 40.1944H143.659Z" fill="white"/>
<path d="M150.088 36.6602H152.824C153.594 36.6602 154.197 36.8921 154.596 37.2724C154.921 37.6063 155.106 38.0609 155.106 38.5989V38.6174C155.106 39.6285 154.503 40.2315 153.641 40.4819L155.301 42.8102H154.03L152.518 40.6674H151.164V42.8102H150.088V36.6694V36.6602ZM152.75 39.7027C153.52 39.7027 154.012 39.3039 154.012 38.6731V38.6545C154.012 37.9959 153.539 37.6341 152.741 37.6341H151.173V39.6935H152.75V39.7027Z" fill="white"/>
<path d="M156.182 36.6602H157.258V42.801H156.182V36.6602Z" fill="white"/>
<path d="M158.177 41.9002L158.826 41.1303C159.41 41.6405 160.004 41.928 160.765 41.928C161.433 41.928 161.85 41.6219 161.85 41.1581V41.1395C161.85 40.7036 161.609 40.4624 160.468 40.2027C159.16 39.8873 158.427 39.4977 158.427 38.366V38.3474C158.427 37.2992 159.308 36.5664 160.524 36.5664C161.414 36.5664 162.128 36.8354 162.75 37.3363L162.175 38.1526C161.618 37.7445 161.071 37.5219 160.505 37.5219C159.874 37.5219 159.503 37.8465 159.503 38.2454V38.2639C159.503 38.737 159.782 38.9504 160.96 39.2287C162.258 39.544 162.935 40.0079 162.935 41.0282V41.0468C162.935 42.197 162.036 42.8835 160.746 42.8835C159.809 42.8835 158.919 42.5588 158.186 41.9002H158.177Z" fill="white"/>
<path d="M163.899 36.6602H165.05L166.914 39.5636L168.779 36.6602H169.929V42.801H168.853V38.3948L166.914 41.2889H166.877L164.957 38.4133V42.801H163.899V36.6602Z" fill="white"/>
<path d="M170.931 39.7476V39.7291C170.931 38.0037 172.266 36.5566 174.149 36.5566C176.033 36.5566 177.35 37.9852 177.35 39.7105V39.7291C177.35 41.4544 176.014 42.9015 174.131 42.9015C172.248 42.9015 170.931 41.473 170.931 39.7476ZM176.218 39.7476V39.7291C176.218 38.5325 175.346 37.5492 174.131 37.5492C172.916 37.5492 172.062 38.5232 172.062 39.7198V39.7384C172.062 40.935 172.934 41.9182 174.149 41.9182C175.365 41.9182 176.218 40.9443 176.218 39.7476Z" fill="white"/>
<path d="M180.736 36.6602H181.812V42.801H180.736V36.6602Z" fill="white"/>
<path d="M183.147 36.6602H184.149L187.442 40.9086V36.6602H188.5V42.801H187.6L184.214 38.4319V42.801H183.157V36.6602H183.147Z" fill="white"/>
<path d="M189.242 36.6602H190.439L192.294 41.3817L194.14 36.6602H195.309L192.758 42.8473H191.812L189.261 36.6602H189.242Z" fill="white"/>
<path d="M196.042 36.6602H200.597V37.6249H197.127V39.2204H200.207V40.1851H197.127V41.8362H200.643V42.801H196.042V36.6602Z" fill="white"/>
<path d="M201.607 36.6602H204.344C205.114 36.6602 205.726 36.8921 206.116 37.2724C206.44 37.6063 206.626 38.0609 206.626 38.5989V38.6174C206.626 39.6285 206.023 40.2315 205.16 40.4819L206.821 42.8102H205.55L204.038 40.6674H202.683V42.8102H201.607V36.6694V36.6602ZM204.27 39.7027C205.04 39.7027 205.531 39.3039 205.531 38.6731V38.6545C205.531 37.9959 205.058 37.6341 204.26 37.6341H202.693V39.6935H204.27V39.7027Z" fill="white"/>
<path d="M207.229 41.9002L207.878 41.1303C208.462 41.6405 209.056 41.928 209.817 41.928C210.484 41.928 210.902 41.6219 210.902 41.1581V41.1395C210.902 40.7036 210.661 40.4624 209.52 40.2027C208.212 39.8873 207.479 39.4977 207.479 38.366V38.3474C207.479 37.2992 208.36 36.5664 209.575 36.5664C210.466 36.5664 211.18 36.8354 211.802 37.3363L211.227 38.1526C210.67 37.7445 210.123 37.5219 209.557 37.5219C208.926 37.5219 208.555 37.8465 208.555 38.2454V38.2639C208.555 38.737 208.833 38.9504 210.011 39.2287C211.31 39.544 211.987 40.0079 211.987 41.0282V41.0468C211.987 42.197 211.087 42.8835 209.798 42.8835C208.861 42.8835 207.971 42.5588 207.238 41.9002H207.229Z" fill="white"/>
<path d="M213.008 36.6602H214.084V42.801H213.008V36.6602Z" fill="white"/>
<path d="M215.15 39.7484V39.7298C215.15 38.0045 216.486 36.5574 218.369 36.5574C220.252 36.5574 221.569 37.9859 221.569 39.7113V39.7298C221.569 41.4552 220.234 42.9023 218.351 42.9023C216.468 42.9023 215.15 41.4737 215.15 39.7484ZM220.438 39.7484V39.7298C220.438 38.5332 219.566 37.5499 218.351 37.5499C217.135 37.5499 216.282 38.5239 216.282 39.7206V39.7391C216.282 40.9357 217.154 41.919 218.369 41.919C219.584 41.919 220.438 40.945 220.438 39.7484ZM218.907 34.7949L219.872 35.2123L218.75 36.0658H217.924L218.907 34.7949Z" fill="white"/>
<path d="M222.562 36.6602H223.564L226.857 40.9086V36.6602H227.915V42.801H227.015L223.629 38.4319V42.801H222.572V36.6602H222.562Z" fill="white"/>
<path d="M231.514 36.6602H232.664L234.528 39.5636L236.393 36.6602H237.543V42.801H236.467V38.3948L234.528 41.2889H234.491L232.571 38.4133V42.801H231.514V36.6602Z" fill="white"/>
<path d="M240.993 36.6133H241.995L244.694 42.8005H243.553L242.932 41.3163H240.029L239.398 42.8005H238.294L240.993 36.6133ZM242.533 40.3608L241.476 37.9027L240.427 40.3608H242.542H242.533Z" fill="white"/>
<path d="M245.437 36.6602H248.173C248.943 36.6602 249.546 36.8921 249.945 37.2724C250.269 37.6063 250.455 38.0609 250.455 38.5989V38.6174C250.455 39.6285 249.852 40.2315 248.989 40.4819L250.65 42.8102H249.379L247.867 40.6674H246.513V42.8102H245.437V36.6694V36.6602ZM248.099 39.7027C248.869 39.7027 249.36 39.3039 249.36 38.6731V38.6545C249.36 37.9959 248.887 37.6341 248.09 37.6341H246.522V39.6935H248.099V39.7027Z" fill="white"/>
<path d="M251.198 39.7476V39.7291C251.198 37.9852 252.506 36.5566 254.361 36.5566C255.493 36.5566 256.179 36.9555 256.763 37.5121L256.068 38.3098C255.576 37.8553 255.047 37.5492 254.352 37.5492C253.174 37.5492 252.329 38.5139 252.329 39.7198V39.7384C252.329 40.9443 253.183 41.9182 254.352 41.9182C255.103 41.9182 255.585 41.6121 256.114 41.1205L256.81 41.8255C256.17 42.4934 255.465 42.9108 254.315 42.9108C252.524 42.9108 251.188 41.5194 251.188 39.7569L251.198 39.7476Z" fill="white"/>
<path d="M259.815 36.6133H260.816L263.516 42.8005H262.375L261.753 41.3163H258.85L258.219 42.8005H257.115L259.815 36.6133ZM261.354 40.3608L260.297 37.9027L259.249 40.3608H261.364H261.354Z" fill="white"/>
<path d="M266.577 36.6602H268.998C270.427 36.6602 271.327 37.4765 271.327 38.7102V38.7287C271.327 40.1016 270.223 40.8251 268.868 40.8251H267.653V42.801H266.577V36.6602ZM268.915 39.8511C269.731 39.8511 270.241 39.3966 270.241 38.7566V38.738C270.241 38.0145 269.722 37.6434 268.915 37.6434H267.662V39.8511H268.915Z" fill="white"/>
<path d="M273.692 36.6133H274.694L277.394 42.8005H276.253L275.631 41.3163H272.728L272.097 42.8005H270.993L273.692 36.6133ZM275.232 40.3608L274.175 37.9027L273.127 40.3608H275.242H275.232Z" fill="white"/>
<path d="M278.2 36.6599H279.276V42.8007H278.2V36.6599ZM279.295 34.8789L280.259 35.2963L279.137 36.1497H278.312L279.295 34.8789Z" fill="white"/>
<path d="M280.194 41.9002L280.844 41.1303C281.428 41.6405 282.022 41.928 282.782 41.928C283.45 41.928 283.868 41.6219 283.868 41.1581V41.1395C283.868 40.7036 283.627 40.4624 282.486 40.2027C281.178 39.8873 280.445 39.4977 280.445 38.366V38.3474C280.445 37.2992 281.326 36.5664 282.541 36.5664C283.432 36.5664 284.146 36.8354 284.767 37.3363L284.192 38.1526C283.636 37.7445 283.088 37.5219 282.523 37.5219C281.892 37.5219 281.521 37.8465 281.521 38.2454V38.2639C281.521 38.737 281.799 38.9504 282.977 39.2287C284.276 39.544 284.953 40.0079 284.953 41.0282V41.0468C284.953 42.197 284.053 42.8835 282.764 42.8835C281.827 42.8835 280.936 42.5588 280.204 41.9002H280.194Z" fill="white"/>
</g>
<defs>
<clipPath id="clip0_1246_2554">
<rect width="285" height="46.1024" fill="white"/>
</clipPath>
</defs>
</svg>
